G04*
G04 #@! TF.GenerationSoftware,Altium Limited,Altium Designer,23.3.1 (30)*
G04*
G04 Layer_Physical_Order=2*
G04 Layer_Color=16711680*
%FSLAX44Y44*%
%MOMM*%
G71*
G04*
G04 #@! TF.SameCoordinates,7B0CC697-CB82-4889-8CF9-0E38B3BB7E85*
G04*
G04*
G04 #@! TF.FilePolarity,Positive*
G04*
G01*
G75*
%ADD11C,0.2540*%
%ADD14R,1.2000X1.2000*%
%ADD15C,1.2000*%
%ADD17R,1.2000X1.2000*%
%ADD18C,1.2500*%
%ADD19R,1.2500X1.2500*%
%ADD21R,1.2500X1.2500*%
%ADD23C,1.9500*%
G04:AMPARAMS|DCode=24|XSize=1.95mm|YSize=1.95mm|CornerRadius=0.4875mm|HoleSize=0mm|Usage=FLASHONLY|Rotation=0.000|XOffset=0mm|YOffset=0mm|HoleType=Round|Shape=RoundedRectangle|*
%AMROUNDEDRECTD24*
21,1,1.9500,0.9750,0,0,0.0*
21,1,0.9750,1.9500,0,0,0.0*
1,1,0.9750,0.4875,-0.4875*
1,1,0.9750,-0.4875,-0.4875*
1,1,0.9750,-0.4875,0.4875*
1,1,0.9750,0.4875,0.4875*
%
%ADD24ROUNDEDRECTD24*%
%ADD25C,1.8000*%
G04:AMPARAMS|DCode=26|XSize=1.95mm|YSize=1.95mm|CornerRadius=0.4875mm|HoleSize=0mm|Usage=FLASHONLY|Rotation=270.000|XOffset=0mm|YOffset=0mm|HoleType=Round|Shape=RoundedRectangle|*
%AMROUNDEDRECTD26*
21,1,1.9500,0.9750,0,0,270.0*
21,1,0.9750,1.9500,0,0,270.0*
1,1,0.9750,-0.4875,-0.4875*
1,1,0.9750,-0.4875,0.4875*
1,1,0.9750,0.4875,0.4875*
1,1,0.9750,0.4875,-0.4875*
%
%ADD26ROUNDEDRECTD26*%
%ADD27C,1.2700*%
%ADD28R,0.5590X0.7240*%
%ADD29R,0.7000X0.9000*%
%ADD30R,0.9000X0.7000*%
%ADD31R,1.0000X2.5000*%
D11*
X556225Y520556D02*
X582217D01*
X378460Y414310D02*
X410100Y382670D01*
X524217D01*
X546957Y405410D01*
X334800Y440580D02*
X369020Y474800D01*
X386477Y502920D02*
X417860D01*
X316924Y449760D02*
X333317D01*
X386477Y502920D01*
X493187Y407850D02*
X539307Y453970D01*
X509402Y400050D02*
X509782Y399670D01*
X510890D01*
X496310Y400310D02*
X517430Y421430D01*
X510890Y399670D02*
X515620Y394940D01*
X539307Y453970D02*
X556210D01*
X496570Y400050D02*
X509402D01*
X454120Y400310D02*
X496310D01*
X496570Y400050D01*
X517430Y421430D02*
X576406D01*
X457243Y407850D02*
X493187D01*
X453570Y429217D02*
X464468Y440115D01*
X453570Y411523D02*
X457243Y407850D01*
X446030Y408400D02*
X454120Y400310D01*
X542463Y520556D02*
X556225D01*
X546725Y501520D02*
X548250Y503045D01*
X546312Y501107D02*
X546725Y501520D01*
X536880Y510540D02*
X544375Y503045D01*
X546725Y500695D02*
Y501520D01*
X545200Y503045D02*
X546725Y501520D01*
X544375Y503045D02*
X545200D01*
X497840Y510540D02*
X536880D01*
X274214Y405780D02*
X284586D01*
X264630Y415364D02*
Y482917D01*
X281940Y439977D02*
Y457860D01*
X284586Y405780D02*
X291920Y413114D01*
X264630Y415364D02*
X274214Y405780D01*
X291920Y413114D02*
Y429997D01*
X281940Y439977D02*
X291920Y429997D01*
X482550Y451013D02*
Y525077D01*
X464468Y440115D02*
X471652D01*
X453067Y554560D02*
X482550Y525077D01*
X312314Y554560D02*
X453067D01*
X417860Y502920D02*
X435610D01*
X447700Y478940D02*
Y490830D01*
X435610Y502920D02*
X447700Y490830D01*
X471652Y440115D02*
X482550Y451013D01*
X299930Y566944D02*
X312314Y554560D01*
X432407Y349700D02*
X465130D01*
X507780Y316899D02*
Y335881D01*
X514309Y310370D02*
X565436D01*
X511185Y302830D02*
X568559D01*
X507780Y335881D02*
X561289Y389390D01*
X465130Y349700D02*
X488158Y326672D01*
X507780Y316899D02*
X514309Y310370D01*
X488158Y325858D02*
X511185Y302830D01*
X488158Y325858D02*
Y326672D01*
X561289Y389390D02*
X576406D01*
X568559Y302830D02*
X615950Y350221D01*
X565436Y310370D02*
X608410Y353344D01*
X522000Y541020D02*
X542463Y520556D01*
X369020Y474800D02*
X430957D01*
X367163Y462280D02*
X422110D01*
X340456Y435574D02*
X367163Y462280D01*
X322110D02*
X353870Y494040D01*
Y511517D01*
X489440Y573580D02*
X522000Y541020D01*
X336870Y498190D02*
X341600Y502920D01*
X329234Y490554D02*
X336870Y498190D01*
X264630Y482917D02*
X272266Y490554D01*
X329234D01*
X295750Y476860D02*
X306337Y466273D01*
Y460347D02*
Y466273D01*
X288440Y476860D02*
X295750D01*
X306337Y460347D02*
X316924Y449760D01*
X275440Y468227D02*
Y476860D01*
X272170Y464957D02*
X275440Y468227D01*
X272170Y425530D02*
Y464957D01*
Y425530D02*
X279400Y418300D01*
X350197Y515190D02*
X353870Y511517D01*
X510538Y483470D02*
X549325D01*
X494471Y448751D02*
Y467404D01*
X510538Y483470D01*
X280635Y525465D02*
Y541591D01*
X280950Y541906D01*
X262070Y523026D02*
X280635Y541591D01*
X280950Y541906D02*
Y573580D01*
X262070Y499558D02*
Y523026D01*
Y499558D02*
X265743Y495885D01*
X300154D01*
X302459Y498190D01*
X336870D01*
X312656Y522730D02*
X344472D01*
X333003Y515190D02*
X350197D01*
X305591Y515665D02*
X312656Y522730D01*
X323588Y505775D02*
X333003Y515190D01*
X344472Y522730D02*
X364032Y542290D01*
X549325Y483470D02*
X565725Y499870D01*
X593330Y416850D02*
Y438882D01*
Y395651D02*
Y416850D01*
X569770Y440410D02*
X593330Y416850D01*
X538980Y471200D02*
X556210Y453970D01*
X578242D01*
X464468Y440115D02*
X477470Y453117D01*
X524069Y326390D02*
X593330Y395651D01*
X523800Y326390D02*
X524069D01*
X578242Y453970D02*
X593330Y438882D01*
X453570Y411523D02*
Y429217D01*
X299930Y566944D02*
Y580216D01*
X309314Y589600D01*
X523836D01*
X615950Y497486D01*
Y350221D02*
Y497486D01*
X397297Y384810D02*
X432407Y349700D01*
X378460Y384810D02*
X397297D01*
X546957Y405410D02*
X569770D01*
X367190Y436907D02*
X375453Y445170D01*
X426367D01*
X434630Y453433D01*
X378460Y414310D02*
Y421810D01*
X367190Y369713D02*
Y436907D01*
X398371Y332753D02*
Y339957D01*
X381030Y339431D02*
Y346635D01*
X367190Y369713D02*
X373783Y363120D01*
X381030Y339431D02*
X418411Y302050D01*
X372085Y355580D02*
X381030Y346635D01*
X338930Y369713D02*
Y400180D01*
X318254Y349036D02*
X338930Y369713D01*
X398371Y332753D02*
X421534Y309590D01*
X356790Y369450D02*
X370660Y355580D01*
X375208Y363120D02*
X398371Y339957D01*
X300077Y349036D02*
X318254D01*
X370660Y355580D02*
X372085D01*
X356790Y369450D02*
Y381080D01*
X353060Y384810D02*
X356790Y381080D01*
X418411Y302050D02*
X465476D01*
X373783Y363120D02*
X375208D01*
X421534Y309590D02*
X455310D01*
X465476Y302050D02*
X478610Y315184D01*
X455310Y309590D02*
X466090Y320370D01*
X444956Y322110D02*
X455736Y332890D01*
X471276D02*
X478610Y325556D01*
X455736Y332890D02*
X471276D01*
X434630Y453433D02*
Y471127D01*
X581525Y510585D02*
X600870Y491240D01*
X558800Y350458D02*
X600870Y392528D01*
Y491240D01*
X576406Y389390D02*
X585790Y398774D01*
X608410Y353344D02*
Y494363D01*
X582217Y520556D02*
X608410Y494363D01*
X463470Y470210D02*
X465700Y472440D01*
X463470Y449780D02*
Y470210D01*
X446030Y432340D02*
X463470Y449780D01*
X446030Y408400D02*
Y432340D01*
X585790Y398774D02*
Y412046D01*
X558800Y326390D02*
Y350458D01*
X576406Y421430D02*
X585790Y412046D01*
X459603Y482210D02*
X473797D01*
X477470Y478537D01*
Y453117D02*
Y478537D01*
X456333Y478940D02*
X459603Y482210D01*
X447700Y478940D02*
X456333D01*
X430957Y474800D02*
X434630Y471127D01*
X466090Y420370D02*
X494471Y448751D01*
X444470Y452610D02*
Y463710D01*
X335450Y421810D02*
X340456Y426816D01*
X327660Y421810D02*
X335450D01*
X320063Y440580D02*
X334800D01*
X426720Y434860D02*
X444470Y452610D01*
X426720Y422110D02*
Y434860D01*
X340456Y426816D02*
Y435574D01*
X549075Y503045D02*
X556525Y510495D01*
X561527D01*
X548250Y503045D02*
X549075D01*
X561527Y510495D02*
X561617Y510585D01*
X581525D01*
X565725Y499870D02*
Y500695D01*
X515620Y471200D02*
X538980D01*
X444470Y463710D02*
X446700Y465940D01*
X447700D01*
X478610Y315184D02*
Y325556D01*
X426720Y322110D02*
X444956D01*
X316390Y403580D02*
Y436907D01*
X320063Y440580D01*
X327660Y384810D02*
Y392310D01*
X316390Y403580D02*
X327660Y392310D01*
X338930Y400180D02*
X353060Y414310D01*
Y421810D01*
X279400Y328360D02*
X300077Y349036D01*
X279400Y318300D02*
Y328360D01*
X271135Y505775D02*
Y506600D01*
X290135Y505775D02*
X323588D01*
X364032Y542290D02*
X422940D01*
X284743Y515665D02*
X305591D01*
X280110Y515575D02*
X284653D01*
X304728Y525465D02*
X321553Y542290D01*
X346680D01*
X284653Y515575D02*
X284743Y515665D01*
X280635Y525465D02*
X304728D01*
X271135Y506600D02*
X280110Y515575D01*
X424210Y541020D02*
X445740D01*
X422940Y542290D02*
X424210Y541020D01*
X315950Y573580D02*
X489440D01*
D14*
X445740Y541020D02*
D03*
X341600Y502920D02*
D03*
X422940Y542290D02*
D03*
D15*
X522000Y541020D02*
D03*
X417860Y502920D02*
D03*
X346680Y542290D02*
D03*
X515620Y471200D02*
D03*
D17*
Y394940D02*
D03*
D18*
X466090Y320370D02*
D03*
X279400Y418300D02*
D03*
X426720Y322110D02*
D03*
X322110Y462280D02*
D03*
D19*
X466090Y420370D02*
D03*
X279400Y318300D02*
D03*
X426720Y422110D02*
D03*
D21*
X422110Y462280D02*
D03*
D23*
X315950Y573580D02*
D03*
X558800Y326390D02*
D03*
X569770Y405410D02*
D03*
D24*
X280950Y573580D02*
D03*
X523800Y326390D02*
D03*
D25*
X340360Y340310D02*
D03*
X365760D02*
D03*
D26*
X569770Y440410D02*
D03*
D27*
X497840Y510540D02*
D03*
D28*
X565725Y500695D02*
D03*
X546725D02*
D03*
X556225Y520385D02*
D03*
X280635Y525465D02*
D03*
X271135Y505775D02*
D03*
X290135D02*
D03*
D29*
X281940Y457860D02*
D03*
X288440Y476860D02*
D03*
X275440D02*
D03*
D30*
X447700Y465940D02*
D03*
Y478940D02*
D03*
X466700Y472440D02*
D03*
D31*
X378460Y421810D02*
D03*
Y384810D02*
D03*
X353060Y421810D02*
D03*
Y384810D02*
D03*
X327660Y421810D02*
D03*
Y384810D02*
D03*
M02*
