G04*
G04 #@! TF.GenerationSoftware,Altium Limited,Altium Designer,23.3.1 (30)*
G04*
G04 Layer_Color=32768*
%FSLAX44Y44*%
%MOMM*%
G71*
G04*
G04 #@! TF.SameCoordinates,7B0CC697-CB82-4889-8CF9-0E38B3BB7E85*
G04*
G04*
G04 #@! TF.FilePolarity,Positive*
G04*
G01*
G75*
%ADD38C,0.1500*%
D38*
X295951Y584078D02*
X290952D01*
X293452D01*
Y571582D01*
X290952Y569082D01*
X288453D01*
X285954Y571582D01*
X310946Y584078D02*
X300949D01*
Y576580D01*
X305948Y579079D01*
X308447D01*
X310946Y576580D01*
Y571582D01*
X308447Y569082D01*
X303448D01*
X300949Y571582D01*
X538801Y336888D02*
X533802D01*
X536302D01*
Y324392D01*
X533802Y321892D01*
X531303D01*
X528804Y324392D01*
X553796Y321892D02*
X543799D01*
X553796Y331889D01*
Y334388D01*
X551297Y336888D01*
X546298D01*
X543799Y334388D01*
X580268Y425409D02*
Y430407D01*
Y427908D01*
X567772D01*
X565272Y430407D01*
Y432907D01*
X567772Y435406D01*
X577768Y420411D02*
X580268Y417912D01*
Y412913D01*
X577768Y410414D01*
X575269D01*
X572770Y412913D01*
Y415412D01*
Y412913D01*
X570271Y410414D01*
X567772D01*
X565272Y412913D01*
Y417912D01*
X567772Y420411D01*
M02*
