G04*
G04 #@! TF.GenerationSoftware,Altium Limited,Altium Designer,23.3.1 (30)*
G04*
G04 Layer_Color=2752767*
%FSLAX44Y44*%
%MOMM*%
G71*
G04*
G04 #@! TF.SameCoordinates,7B0CC697-CB82-4889-8CF9-0E38B3BB7E85*
G04*
G04*
G04 #@! TF.FilePolarity,Positive*
G04*
G01*
G75*
%ADD40C,0.1270*%
%ADD41C,0.1693*%
D40*
X310870Y568500D02*
Y578660D01*
X321030D01*
Y568500D01*
X310870D01*
X275870D02*
Y578660D01*
X286030D01*
Y568500D01*
X275870D01*
X553720Y321310D02*
Y331470D01*
X563880D01*
Y321310D01*
X553720D01*
X518720D02*
Y331470D01*
X528880D01*
Y321310D01*
X518720D01*
X340360Y335230D02*
X335280Y345390D01*
X345440D01*
X340360Y335230D01*
X365760D02*
X360680Y345390D01*
X370840D01*
X365760Y335230D01*
X466090Y315290D02*
X468630Y317830D01*
X471170D01*
X468630Y320370D01*
X471170Y322910D01*
X468630D01*
X466090Y325450D01*
X463550Y322910D01*
X461010D01*
X463550Y320370D01*
X461010Y317830D01*
X463550D01*
X466090Y315290D01*
Y415290D02*
X468630Y417830D01*
X471170D01*
X468630Y420370D01*
X471170Y422910D01*
X468630D01*
X466090Y425450D01*
X463550Y422910D01*
X461010D01*
X463550Y420370D01*
X461010Y417830D01*
X463550D01*
X466090Y415290D01*
X564690Y435330D02*
Y445490D01*
X574850D01*
Y435330D01*
X564690D01*
Y400330D02*
Y410490D01*
X574850D01*
Y400330D01*
X564690D01*
X279400Y413220D02*
X281940Y415760D01*
X284480D01*
X281940Y418300D01*
X284480Y420840D01*
X281940D01*
X279400Y423380D01*
X276860Y420840D01*
X274320D01*
X276860Y418300D01*
X274320Y415760D01*
X276860D01*
X279400Y413220D01*
Y313220D02*
X281940Y315760D01*
X284480D01*
X281940Y318300D01*
X284480Y320840D01*
X281940D01*
X279400Y323380D01*
X276860Y320840D01*
X274320D01*
X276860Y318300D01*
X274320Y315760D01*
X276860D01*
X279400Y313220D01*
X426720Y317030D02*
X429260Y319570D01*
X431800D01*
X429260Y322110D01*
X431800Y324650D01*
X429260D01*
X426720Y327190D01*
X424180Y324650D01*
X421640D01*
X424180Y322110D01*
X421640Y319570D01*
X424180D01*
X426720Y317030D01*
Y417030D02*
X429260Y419570D01*
X431800D01*
X429260Y422110D01*
X431800Y424650D01*
X429260D01*
X426720Y427190D01*
X424180Y424650D01*
X421640D01*
X424180Y422110D01*
X421640Y419570D01*
X424180D01*
X426720Y417030D01*
X322110Y457200D02*
X324650Y459740D01*
X327190D01*
X324650Y462280D01*
X327190Y464820D01*
X324650D01*
X322110Y467360D01*
X319570Y464820D01*
X317030D01*
X319570Y462280D01*
X317030Y459740D01*
X319570D01*
X322110Y457200D01*
X422110D02*
X424650Y459740D01*
X427190D01*
X424650Y462280D01*
X427190Y464820D01*
X424650D01*
X422110Y467360D01*
X419570Y464820D01*
X417030D01*
X419570Y462280D01*
X417030Y459740D01*
X419570D01*
X422110Y457200D01*
X492760Y505460D02*
X495300Y510540D01*
X492760Y515620D01*
X497840Y513080D01*
X502920Y515620D01*
X500380Y510540D01*
X502920Y505460D01*
X497840Y508000D01*
X492760Y505460D01*
D41*
X450820Y541020D02*
G03*
X450820Y541020I-5080J0D01*
G01*
X527080D02*
G03*
X527080Y541020I-5080J0D01*
G01*
X346680Y502920D02*
G03*
X346680Y502920I-5080J0D01*
G01*
X422940D02*
G03*
X422940Y502920I-5080J0D01*
G01*
X351760Y542290D02*
G03*
X351760Y542290I-5080J0D01*
G01*
X428020D02*
G03*
X428020Y542290I-5080J0D01*
G01*
X520700Y471200D02*
G03*
X520700Y471200I-5080J0D01*
G01*
Y394940D02*
G03*
X520700Y394940I-5080J0D01*
G01*
M02*
