G04*
G04 #@! TF.GenerationSoftware,Altium Limited,Altium Designer,23.3.1 (30)*
G04*
G04 Layer_Color=255*
%FSLAX44Y44*%
%MOMM*%
G71*
G04*
G04 #@! TF.SameCoordinates,7B0CC697-CB82-4889-8CF9-0E38B3BB7E85*
G04*
G04*
G04 #@! TF.FilePolarity,Positive*
G04*
G01*
G75*
%ADD14R,1.2000X1.2000*%
%ADD15C,1.2000*%
%ADD17R,1.2000X1.2000*%
%ADD18C,1.2500*%
%ADD19R,1.2500X1.2500*%
%ADD21R,1.2500X1.2500*%
%ADD23C,1.9500*%
G04:AMPARAMS|DCode=24|XSize=1.95mm|YSize=1.95mm|CornerRadius=0.4875mm|HoleSize=0mm|Usage=FLASHONLY|Rotation=0.000|XOffset=0mm|YOffset=0mm|HoleType=Round|Shape=RoundedRectangle|*
%AMROUNDEDRECTD24*
21,1,1.9500,0.9750,0,0,0.0*
21,1,0.9750,1.9500,0,0,0.0*
1,1,0.9750,0.4875,-0.4875*
1,1,0.9750,-0.4875,-0.4875*
1,1,0.9750,-0.4875,0.4875*
1,1,0.9750,0.4875,0.4875*
%
%ADD24ROUNDEDRECTD24*%
%ADD25C,1.8000*%
G04:AMPARAMS|DCode=26|XSize=1.95mm|YSize=1.95mm|CornerRadius=0.4875mm|HoleSize=0mm|Usage=FLASHONLY|Rotation=270.000|XOffset=0mm|YOffset=0mm|HoleType=Round|Shape=RoundedRectangle|*
%AMROUNDEDRECTD26*
21,1,1.9500,0.9750,0,0,270.0*
21,1,0.9750,1.9500,0,0,270.0*
1,1,0.9750,-0.4875,-0.4875*
1,1,0.9750,-0.4875,0.4875*
1,1,0.9750,0.4875,0.4875*
1,1,0.9750,0.4875,-0.4875*
%
%ADD26ROUNDEDRECTD26*%
%ADD28R,0.5590X0.7240*%
%ADD29R,0.7000X0.9000*%
%ADD30R,0.9000X0.7000*%
%ADD31R,1.0000X2.5000*%
D14*
X445740Y541020D02*
D03*
X341600Y502920D02*
D03*
X422940Y542290D02*
D03*
D15*
X522000Y541020D02*
D03*
X417860Y502920D02*
D03*
X346680Y542290D02*
D03*
X515620Y471200D02*
D03*
D17*
Y394940D02*
D03*
D18*
X466090Y320370D02*
D03*
X279400Y418300D02*
D03*
X426720Y322110D02*
D03*
X322110Y462280D02*
D03*
D19*
X466090Y420370D02*
D03*
X279400Y318300D02*
D03*
X426720Y422110D02*
D03*
D21*
X422110Y462280D02*
D03*
D23*
X315950Y573580D02*
D03*
X558800Y326390D02*
D03*
X569770Y405410D02*
D03*
D24*
X280950Y573580D02*
D03*
X523800Y326390D02*
D03*
D25*
X340360Y340310D02*
D03*
X365760D02*
D03*
D26*
X569770Y440410D02*
D03*
D28*
X565725Y500695D02*
D03*
X546725D02*
D03*
X556225Y520385D02*
D03*
X280635Y525465D02*
D03*
X271135Y505775D02*
D03*
X290135D02*
D03*
D29*
X281940Y457860D02*
D03*
X288440Y476860D02*
D03*
X275440D02*
D03*
D30*
X447700Y465940D02*
D03*
Y478940D02*
D03*
X466700Y472440D02*
D03*
D31*
X378460Y421810D02*
D03*
Y384810D02*
D03*
X353060Y421810D02*
D03*
Y384810D02*
D03*
X327660Y421810D02*
D03*
Y384810D02*
D03*
M02*
