G04*
G04 #@! TF.GenerationSoftware,Altium Limited,Altium Designer,23.3.1 (30)*
G04*
G04 Layer_Color=32768*
%FSLAX44Y44*%
%MOMM*%
G71*
G04*
G04 #@! TF.SameCoordinates,7B0CC697-CB82-4889-8CF9-0E38B3BB7E85*
G04*
G04*
G04 #@! TF.FilePolarity,Positive*
G04*
G01*
G75*
%ADD37C,0.1000*%
D37*
X263450Y550380D02*
Y602780D01*
Y607780D02*
Y613580D01*
X259450Y602030D02*
Y608530D01*
X263450Y607780D01*
X259450Y602030D02*
X263450Y602780D01*
Y539580D02*
Y545380D01*
X259450Y551130D02*
X263450Y550380D01*
X259450Y544630D02*
X263450Y545380D01*
X259450Y544630D02*
Y551130D01*
X333450Y539580D02*
Y613580D01*
X263450Y539580D02*
X333450D01*
X263450Y613580D02*
X333450D01*
X506300Y303190D02*
Y355590D01*
Y360590D02*
Y366390D01*
X502300Y354840D02*
Y361340D01*
X506300Y360590D01*
X502300Y354840D02*
X506300Y355590D01*
Y292390D02*
Y298190D01*
X502300Y303940D02*
X506300Y303190D01*
X502300Y297440D02*
X506300Y298190D01*
X502300Y297440D02*
Y303940D01*
X576300Y292390D02*
Y366390D01*
X506300Y292390D02*
X576300D01*
X506300Y366390D02*
X576300D01*
X609770Y387910D02*
Y457910D01*
X535770Y387910D02*
Y457910D01*
Y387910D02*
X609770D01*
X540820Y461910D02*
X547320D01*
X540820D02*
X541570Y457910D01*
X546570D02*
X547320Y461910D01*
X535770Y457910D02*
X541570D01*
X598220Y461910D02*
X598970Y457910D01*
X603970D02*
X604720Y461910D01*
X598220D02*
X604720D01*
X603970Y457910D02*
X609770D01*
X546570D02*
X598970D01*
M02*
