G04*
G04 #@! TF.GenerationSoftware,Altium Limited,Altium Designer,23.3.1 (30)*
G04*
G04 Layer_Color=32768*
%FSLAX44Y44*%
%MOMM*%
G71*
G04*
G04 #@! TF.SameCoordinates,7B0CC697-CB82-4889-8CF9-0E38B3BB7E85*
G04*
G04*
G04 #@! TF.FilePolarity,Positive*
G04*
G01*
G75*
%ADD10C,0.2000*%
%ADD39C,0.0500*%
D10*
X438740Y551570D02*
X529000D01*
Y530470D02*
Y551570D01*
X438740Y530470D02*
X529000D01*
X438740D02*
Y551570D01*
X334600Y513470D02*
X424860D01*
Y492370D02*
Y513470D01*
X334600Y492370D02*
X424860D01*
X334600D02*
Y513470D01*
X429940Y531740D02*
Y552840D01*
X339680D02*
X429940D01*
X339680Y531740D02*
Y552840D01*
Y531740D02*
X429940D01*
X505070Y387940D02*
X526170D01*
Y478200D01*
X505070D02*
X526170D01*
X505070Y387940D02*
Y478200D01*
X452590Y427620D02*
X479590D01*
X452590Y313120D02*
Y427620D01*
Y313120D02*
X479590D01*
Y427620D01*
X265900Y311050D02*
X292900D01*
Y425550D01*
X265900D02*
X292900D01*
X265900Y311050D02*
Y425550D01*
X413220Y429360D02*
X440220D01*
X413220Y314860D02*
Y429360D01*
Y314860D02*
X440220D01*
Y429360D01*
X429360Y448780D02*
Y475780D01*
X314860D02*
X429360D01*
X314860Y448780D02*
Y475780D01*
Y448780D02*
X429360D01*
D39*
X257450Y537580D02*
Y615580D01*
Y537580D02*
X335450D01*
Y615580D01*
X257450D02*
X335450D01*
X500300Y290390D02*
Y368390D01*
Y290390D02*
X578300D01*
Y368390D01*
X500300D02*
X578300D01*
X611770Y385910D02*
Y463910D01*
X533770Y385910D02*
X611770D01*
X533770D02*
Y463910D01*
X611770D01*
M02*
