M48
;Layer_Color=9474304
;FILE_FORMAT=4:2
METRIC,LZ
;TYPE=PLATED
T1F00S00C0.70
T2F00S00C0.71
T3F00S00C0.75
T4F00S00C1.30
;TYPE=NON_PLATED
T5F00S00C1.80
%
T01
X005156Y003949
Y004712
X00522Y00541
X004457
X004229Y005423
X004179Y005029
X003416
X003467Y005423
T02
X004978Y005105
T03
X002794Y003183
X004267Y003221
X004661Y003204
Y004204
X004267Y004221
X004221Y004623
X003221
X002794Y004183
T04
X005238Y003264
X005588
X005698Y004054
Y004404
X003159Y005736
X002809
T05
X003404Y003403
X003658
M30
