G04*
G04 #@! TF.GenerationSoftware,Altium Limited,Altium Designer,23.3.1 (30)*
G04*
G04 Layer_Color=16711935*
%FSLAX44Y44*%
%MOMM*%
G71*
G04*
G04 #@! TF.SameCoordinates,7B0CC697-CB82-4889-8CF9-0E38B3BB7E85*
G04*
G04*
G04 #@! TF.FilePolarity,Positive*
G04*
G01*
G75*
%ADD10C,0.2000*%
%ADD37C,0.1000*%
D10*
X461070Y550570D02*
X506670D01*
Y531470D02*
Y550570D01*
X461070Y531470D02*
X506670D01*
X461070D02*
Y550570D01*
X356930Y512470D02*
X402530D01*
Y493370D02*
Y512470D01*
X356930Y493370D02*
X402530D01*
X356930D02*
Y512470D01*
X407610Y532740D02*
Y551840D01*
X362010D02*
X407610D01*
X362010Y532740D02*
Y551840D01*
Y532740D02*
X407610D01*
X506070Y410270D02*
X525170D01*
Y455870D01*
X506070D02*
X525170D01*
X506070Y410270D02*
Y455870D01*
X453590Y402870D02*
X478590D01*
X453590Y337870D02*
Y402870D01*
Y337870D02*
X478590D01*
Y402870D01*
X266900Y335800D02*
X291900D01*
Y400800D01*
X266900D02*
X291900D01*
X266900Y335800D02*
Y400800D01*
X414220Y404610D02*
X439220D01*
X414220Y339610D02*
Y404610D01*
Y339610D02*
X439220D01*
Y404610D01*
X404610Y449780D02*
Y474780D01*
X339610D02*
X404610D01*
X339610Y449780D02*
Y474780D01*
Y449780D02*
X404610D01*
D37*
X263450Y613580D02*
X333450D01*
X263450Y539580D02*
X333450D01*
Y613580D01*
X259450Y544630D02*
Y551130D01*
Y544630D02*
X263450Y545380D01*
X259450Y551130D02*
X263450Y550380D01*
Y539580D02*
Y545380D01*
X259450Y602030D02*
X263450Y602780D01*
X259450Y608530D02*
X263450Y607780D01*
X259450Y602030D02*
Y608530D01*
X263450Y607780D02*
Y613580D01*
Y550380D02*
Y602780D01*
X506300Y366390D02*
X576300D01*
X506300Y292390D02*
X576300D01*
Y366390D01*
X502300Y297440D02*
Y303940D01*
Y297440D02*
X506300Y298190D01*
X502300Y303940D02*
X506300Y303190D01*
Y292390D02*
Y298190D01*
X502300Y354840D02*
X506300Y355590D01*
X502300Y361340D02*
X506300Y360590D01*
X502300Y354840D02*
Y361340D01*
X506300Y360590D02*
Y366390D01*
Y303190D02*
Y355590D01*
X546570Y457910D02*
X598970D01*
X603970D02*
X609770D01*
X598220Y461910D02*
X604720D01*
X603970Y457910D02*
X604720Y461910D01*
X598220D02*
X598970Y457910D01*
X535770D02*
X541570D01*
X546570D02*
X547320Y461910D01*
X540820D02*
X541570Y457910D01*
X540820Y461910D02*
X547320D01*
X535770Y387910D02*
X609770D01*
X535770D02*
Y457910D01*
X609770Y387910D02*
Y457910D01*
M02*
